<svg xmlns="http://www.w3.org/2000/svg" viewBox="0 0 512 512">
  <defs>
    <linearGradient id="bg" x1="0%" y1="0%" x2="100%" y2="100%">
      <stop offset="0%" style="stop-color:#18181b"/>
      <stop offset="100%" style="stop-color:#09090b"/>
    </linearGradient>
    <linearGradient id="key" x1="0%" y1="0%" x2="100%" y2="100%">
      <stop offset="0%" style="stop-color:#a1a1aa"/>
      <stop offset="100%" style="stop-color:#71717a"/>
    </linearGradient>
  </defs>
  <!-- Background -->
  <rect width="512" height="512" rx="96" fill="url(#bg)"/>
  <!-- Key icon -->
  <g transform="translate(256, 256)">
    <!-- Key head (circle) -->
    <circle cx="-60" cy="-20" r="70" fill="none" stroke="url(#key)" stroke-width="28"/>
    <!-- Key shaft -->
    <rect x="-10" y="-34" width="150" height="28" rx="14" fill="url(#key)"/>
    <!-- Key teeth -->
    <rect x="90" y="-6" width="28" height="50" rx="8" fill="url(#key)"/>
    <rect x="130" y="-6" width="28" height="35" rx="8" fill="url(#key)"/>
  </g>
  <!-- Lock dots pattern -->
  <g fill="#52525b" opacity="0.6">
    <circle cx="100" cy="420" r="8"/>
    <circle cx="140" cy="420" r="8"/>
    <circle cx="180" cy="420" r="8"/>
    <circle cx="220" cy="420" r="8"/>
    <circle cx="260" cy="420" r="8"/>
    <circle cx="300" cy="420" r="8"/>
    <circle cx="340" cy="420" r="8"/>
    <circle cx="380" cy="420" r="8"/>
    <circle cx="100" cy="380" r="6"/>
    <circle cx="140" cy="380" r="6"/>
    <circle cx="180" cy="380" r="6"/>
    <circle cx="220" cy="380" r="6"/>
    <circle cx="260" cy="380" r="6"/>
    <circle cx="300" cy="380" r="6"/>
    <circle cx="340" cy="380" r="6"/>
    <circle cx="380" cy="380" r="6"/>
  </g>
</svg>
